<?xml version="1.0" encoding="utf-8"?>
<!-- Generator: Adobe Illustrator 22.1.0, SVG Export Plug-In . SVG Version: 6.00 Build 0)  -->
<svg version="1.1" id="Layer_1" xmlns="http://www.w3.org/2000/svg" xmlns:xlink="http://www.w3.org/1999/xlink" x="0px" y="0px"
	 viewBox="0 0 72 72" style="enable-background:new 0 0 72 72;" xml:space="preserve">
<style type="text/css">
	.st0{fill:#E57E03;stroke:#000000;stroke-miterlimit:10;}
	.st1{fill:#EF2043;}
	.st2{fill:#262021;}
</style>
<g>
	<g>
		<g>
			<path class="st0" d="M36,2.1c-13.8,0-25,11.2-25,25c0,13.8,25,42.9,25,42.9s25-29.1,25-42.9C61,13.3,49.8,2.1,36,2.1z M38.5,45.1
				l-0.6,1.7c-0.5,1.5-1.6,2.5-3,2.5c-0.1,0-0.2,0-0.3,0c-1.3-0.1-2.7-1.2-2.9-3.3l-0.1-1.3c-7.9-2-13.8-9.1-13.8-17.7
				C17.8,17,25.9,8.9,36,8.9S54.2,17,54.2,27.1C54.2,36.3,47.4,43.9,38.5,45.1z"/>
		</g>
	</g>
	<g>
		<g>
			<g>
				<g>
					<path d="M24,31.4c-0.1,0-0.3-0.1-0.4-0.2c-1-1.3-1.6-2.9-1.6-4.5c0-0.2,0.2-0.4,0.4-0.4c0.2,0,0.4,0.2,0.4,0.4
						c0,1.5,0.5,2.8,1.4,4c0.2,0.2,0.1,0.5-0.1,0.6C24.2,31.3,24.1,31.4,24,31.4z"/>
				</g>
			</g>
		</g>
		<g>
			<g>
				<g>
					<path d="M36,28.9c0,0-0.1,0-0.1,0c-0.2-0.1-0.4-0.3-0.3-0.5c0.1-0.5,0.2-1.1,0.2-1.6c0-0.2,0.2-0.4,0.4-0.4s0.4,0.2,0.4,0.4
						c0,0.6-0.1,1.3-0.2,1.9C36.4,28.7,36.2,28.9,36,28.9z"/>
				</g>
			</g>
		</g>
		<g>
			<g>
				<g>
					<path d="M36,28.9c-0.2,0-0.4-0.1-0.4-0.3c-0.2-0.6-0.2-1.2-0.2-1.9c0-0.2,0.2-0.4,0.4-0.4s0.4,0.2,0.4,0.4
						c0,0.6,0.1,1.1,0.2,1.6c0.1,0.2-0.1,0.5-0.3,0.5C36.1,28.9,36,28.9,36,28.9z"/>
				</g>
			</g>
		</g>
		<g>
			<g>
				<g>
					<path d="M47.9,31.5c-0.1,0-0.2,0-0.3-0.1c-0.2-0.2-0.2-0.4-0.1-0.6c1-1.1,1.5-2.6,1.5-4.1c0-0.2,0.2-0.4,0.4-0.4
						c0.2,0,0.4,0.2,0.4,0.4c0,1.7-0.6,3.4-1.7,4.7C48.1,31.5,48,31.5,47.9,31.5z"/>
				</g>
			</g>
		</g>
		<g>
			<g>
				<g>
					<path d="M38,25.6c0,1.2-2.1,2.1-2.1,2.1s-2.1-0.9-2.1-2.1c0-1.2,0.9-1.1,2.1-1.1C37.1,24.5,38,24.5,38,25.6z"/>
				</g>
			</g>
		</g>
		<g>
			<g>
				<g>
					<path d="M48,32.2c0,5-4.5,9.4-10.4,10.1c-0.6,0.1-1.1,0.1-1.7,0.1c-1.2,0-2.4-0.2-3.5-0.5c-4.9-1.3-8.5-5.3-8.5-9.8
						c0-0.5,0-1,0.1-1.4c1.3,1.3,3.2,2.2,5.4,2.2c0.6,0,1.2-0.1,1.7-0.2c2.1-0.4,3.7-1.6,4.6-3.2c0.1-0.3,0.2-0.5,0.3-0.8
						c0.1,0.3,0.2,0.5,0.3,0.8c0.9,1.7,2.7,3,5,3.3c0.4,0.1,0.9,0.1,1.3,0.1c2.1,0,4-0.8,5.3-2C48,31.3,48,31.8,48,32.2z"/>
				</g>
			</g>
			<g>
				<g>
					<path d="M35.9,42.9c-1.2,0-2.5-0.2-3.6-0.5c-5.2-1.4-8.9-5.6-8.9-10.2c0-0.5,0-1,0.1-1.5l0.2-0.9l0.7,0.7c1.2,1.3,3.1,2,5,2
						c0.6,0,1.1-0.1,1.6-0.2c1.9-0.4,3.5-1.5,4.2-3c0.1-0.2,0.2-0.5,0.3-0.7l0.5-1.5l0.5,1.5c0.1,0.2,0.2,0.5,0.3,0.7
						c0.8,1.6,2.6,2.7,4.6,3.1c0.4,0.1,0.8,0.1,1.2,0.1c1.9,0,3.7-0.7,4.9-1.9l0.7-0.7l0.1,0.9c0.1,0.4,0.1,0.9,0.1,1.4
						c0,2.5-1.1,5-3.1,7c-2,2-4.7,3.2-7.6,3.6C37.1,42.9,36.5,42.9,35.9,42.9z M24.4,31.8c0,0.1,0,0.3,0,0.4c0,4.2,3.4,8,8.2,9.3
						c1.1,0.3,2.2,0.4,3.4,0.4c0.6,0,1.1,0,1.7-0.1c5.6-0.7,9.9-4.9,9.9-9.6c0-0.1,0-0.2,0-0.3c-1.3,1-3.1,1.5-4.9,1.5
						c-0.5,0-0.9,0-1.4-0.1C39,32.9,37,31.7,36,29.9c-0.9,1.6-2.7,2.9-4.8,3.3c-0.6,0.1-1.2,0.2-1.8,0.2
						C27.5,33.4,25.7,32.8,24.4,31.8z"/>
				</g>
			</g>
		</g>
		<g>
			<g>
				<g>
					<path class="st1" d="M41.3,33.4L37.6,45l-0.5,1.6c-0.9,2.8-4.2,2.3-4.5-0.7l-0.2-1.4l-1.3-11.2c2.1-0.5,3.7-2,4.6-3.9l0.7,0
						C37.2,31.4,39.1,33,41.3,33.4z"/>
				</g>
			</g>
			<g>
				<g>
					<path d="M34.9,48.6c-0.1,0-0.1,0-0.2,0c-1-0.1-2.1-1-2.3-2.7l-1.5-12.7l0.1,0c2-0.5,3.7-2,4.5-3.8l0-0.1l0.9,0l0,0.1
						c0.9,2,2.7,3.5,4.9,3.9l0.2,0l-4.3,13.3C36.9,47.9,36,48.6,34.9,48.6z M31.3,33.4l1.5,12.5c0.2,1.6,1.2,2.3,2,2.4
						c0.8,0.1,1.8-0.3,2.2-1.8l4.2-13c-2.2-0.5-4-1.9-4.9-4l-0.5,0C34.9,31.4,33.3,32.9,31.3,33.4z"/>
				</g>
			</g>
		</g>
		<g>
			<g>
				<g>
					<path class="st2" d="M31.1,20.2c0,1.5-1.2-0.6-2.8-0.6s-2.8,2.1-2.8,0.6s1.2-2.8,2.8-2.8S31.1,18.6,31.1,20.2z"/>
				</g>
			</g>
		</g>
		<g>
			<g>
				<g>
					<path class="st2" d="M45.8,20.2c0,1.5-1.2-0.6-2.8-0.6c-1.5,0-2.8,2.1-2.8,0.6s1.2-2.8,2.8-2.8C44.5,17.4,45.8,18.6,45.8,20.2z
						"/>
				</g>
			</g>
		</g>
	</g>
</g>
</svg>
